# xmcd
#
# Track frame offsets:
#	182
#	11355
#	24582
#	37432
#	53257
#	65147
#	75942
#	89447
#	103022
#	121090
#	140220
#	150097
#
# Disc length: 2225 seconds
#
# Revision: 1
# Processed by: cddbd v1.5.1PL0 Copyright (c) Steve Scherf et al.
# Submitted via: EasyCDDAExtractor 6.0.0.1
#
DISCID=8f08af0c
DTITLE=Rocky Tops - Second Attraction
DYEAR=1995
DGENRE=Country
TTITLE0=Sally Ann
TTITLE1=Two Heart Harmony
TTITLE2=Hold On Tight - Let It Go
TTITLE3=Can't Get Over You
TTITLE4=Crazy
TTITLE5=Story Of Love
TTITLE6=She Don't Get The Blues
TTITLE7=If You Don't Believe In The Bible
TTITLE8=Once More
TTITLE9=Our Story
TTITLE10=River Boat Fantasy
TTITLE11=Fort Worth
EXTD=
EXTT0=
EXTT1=
EXTT2=
EXTT3=
EXTT4=
EXTT5=
EXTT6=
EXTT7=
EXTT8=
EXTT9=
EXTT10=
EXTT11=
PLAYORDER=
